<?xml version="1.0" encoding="UTF-8" standalone="no"?>
<svg
   xmlns:dc="http://purl.org/dc/elements/1.1/"
   xmlns:cc="http://creativecommons.org/ns#"
   xmlns:rdf="http://www.w3.org/1999/02/22-rdf-syntax-ns#"
   xmlns:svg="http://www.w3.org/2000/svg"
   xmlns="http://www.w3.org/2000/svg"
   xmlns:sodipodi="http://sodipodi.sourceforge.net/DTD/sodipodi-0.dtd"
   xmlns:inkscape="http://www.inkscape.org/namespaces/inkscape"
   version="1.1"
   id="Layer_1"
   x="0px"
   y="0px"
   viewBox="0 0 1508.7118 186.90535"
   enable-background="new 0 0 1400 980"
   xml:space="preserve"
   sodipodi:docname="thistle-icon.svg"
   inkscape:version="1.0 (4035a4f, 2020-05-01)"
   width="1508.7117"
   height="186.90535"><metadata
   id="metadata20566"><rdf:RDF><cc:Work
       rdf:about=""><dc:format>image/svg+xml</dc:format><dc:type
         rdf:resource="http://purl.org/dc/dcmitype/StillImage" /><dc:title></dc:title></cc:Work></rdf:RDF></metadata><defs
   id="defs20564">
	
	

		
		
		
		
		
		
		
		
	</defs><sodipodi:namedview
   inkscape:document-rotation="0"
   pagecolor="#ffffff"
   bordercolor="#666666"
   borderopacity="1"
   objecttolerance="10"
   gridtolerance="10"
   guidetolerance="10"
   inkscape:pageopacity="0"
   inkscape:pageshadow="2"
   inkscape:window-width="1323"
   inkscape:window-height="854"
   id="namedview20562"
   showgrid="false"
   inkscape:zoom="1.4142136"
   inkscape:cx="139.04251"
   inkscape:cy="103.41385"
   inkscape:window-x="1"
   inkscape:window-y="203"
   inkscape:window-maximized="0"
   inkscape:current-layer="g19727"
   fit-margin-top="0"
   fit-margin-left="0"
   fit-margin-right="0"
   fit-margin-bottom="0"
   inkscape:snap-global="true" />
<g
   id="g19727"
   transform="matrix(0.76176962,0,0,0.7623493,-120.14871,-422.34151)">
			
			
			
			
			
			
			<g
   id="g19723">
				
				<g
   id="g19721">
					
					
					
					
					
					
					
					
					
				</g>
			</g>
			<g
   transform="matrix(0.84631348,0,0,0.84631348,58.047122,85.14233)"
   id="g24014"><path
     id="path19659"
     d="m 245.4,821.6 c 0,0 15.4,-39.2 48.8,-43.7 33.4,-4.5 16.7,-23.8 16.7,-23.8 0,0 21.2,7.1 14.1,19.9 -7.1,12.8 3.9,6.4 6.4,5.8 2.6,-0.6 -12.8,23.8 -28.9,9 0,0 5.8,13.5 18.6,10.3 0,0 -19.9,12.2 -35.3,-5.8 0,0 -0.6,15.4 15.4,18 0,0 -25.7,7.1 -33.4,-9 0.1,0 -8.3,2 -22.4,19.3 z"
     fill="#4c7767"
     style="fill:#ffffff;fill-opacity:1" /><path
     id="path19661"
     d="m 248.3,820.3 c 0,0 -15.4,-39.2 -48.8,-43.7 -33.4,-4.5 -16.7,-23.8 -16.7,-23.8 0,0 -21.2,7.1 -14.1,19.9 7.1,12.8 -3.9,6.4 -6.4,5.8 -2.6,-0.6 12.8,23.8 28.9,9 0,0 -5.8,13.5 -18.6,10.3 0,0 19.9,12.2 35.3,-5.8 0,0 0.6,15.4 -15.4,18 0,0 25.7,7.1 33.4,-9 -0.1,0.1 8.2,2 22.4,19.3 z"
     fill="#4c7767"
     style="fill:#ffffff;fill-opacity:1" /><path
     id="path19663"
     d="m 239,790.1 c 0,0 8.3,-10.3 -7.1,-21.2 -15.4,-10.9 -14.8,-13.5 -9,-22.5 0,0 -22.5,10.3 -9,25.7 13.5,15.5 26.4,5.8 25.1,18 z"
     fill="#4c7767"
     style="fill:#ffffff;fill-opacity:1" /><path
     id="path19665"
     d="m 257.5,789.5 c 0,0 -8.3,-10.3 7.1,-21.2 15.4,-10.9 14.8,-13.5 9,-22.5 0,0 22.5,10.3 9,25.7 -13.6,15.4 -26.4,5.8 -25.1,18 z"
     fill="#4c7767"
     style="fill:#ffffff;fill-opacity:1" /><path
     id="path19667"
     d="m 373.3,758 -3.9,11.6 c -1.3,-34 -28.3,-43.7 -28.3,-43.7 l 1.3,12.2 c -7.7,-23.8 -28.3,-18 -25,-18.6 3.2,-0.6 3.2,7.7 3.2,7.7 -25,-7.7 -28.9,16.7 -16.7,8.3 12.2,-8.3 34.7,12.8 41.1,45 6.4,32.1 -28.3,53.3 -54.6,53.3 -26.3,0 -37.9,-24.4 -37.9,-24.4 l -3.2,5.1 -3.8,8.2 c 25.1,32.6 83.4,17.5 83.4,17.5 l -7.7,-6.4 c 27.6,0 43,-21.2 43,-21.2 l -11.6,1.9 C 391.9,795.3 373.3,758 373.3,758 Z m -18.8,28.8 c 0,0.6 -0.1,1.2 -0.1,1.8 0,1.2 -0.3,2.3 -0.4,3.5 -0.2,1.1 -0.4,2.2 -0.7,3.3 -0.3,1.1 -0.6,2.1 -0.9,3.1 -0.7,2 -1.5,3.8 -2.4,5.4 -0.4,0.8 -0.8,1.6 -1.3,2.3 -0.5,0.7 -0.8,1.4 -1.3,2 -0.9,1.2 -1.6,2.2 -2.3,3 -1.4,1.5 -2.2,2.4 -2.2,2.4 0,0 0.7,-1 1.8,-2.7 0.6,-0.9 1.2,-2 1.9,-3.2 0.4,-0.6 0.7,-1.3 1,-2 0.4,-0.7 0.7,-1.5 1,-2.3 0.7,-1.6 1.3,-3.4 1.9,-5.3 0.2,-1 0.5,-2 0.7,-3 0.1,-1 0.4,-2.1 0.5,-3.2 0.3,-2.2 0.4,-4.4 0.3,-6.7 0,-2.3 -0.3,-4.6 -0.6,-6.9 -0.4,-2.3 -0.8,-4.6 -1.4,-6.8 -0.6,-2.2 -1.3,-4.4 -2,-6.5 -0.8,-2.1 -1.6,-4 -2.4,-5.9 -0.8,-1.9 -1.7,-3.6 -2.5,-5.2 -3.3,-6.3 -6,-10.3 -6,-10.3 0,0 3.4,3.4 7.3,9.5 1.9,3 4,6.8 5.7,11 0.8,2.1 1.7,4.3 2.3,6.6 0.7,2.3 1.2,4.7 1.6,7.1 0.3,2.4 0.6,4.9 0.5,7.3 0,0.5 0,1.1 0,1.7 z"
     fill="#4c7767"
     style="fill:#ffffff;fill-opacity:1" /><path
     id="path19669"
     d="m 142.8,814.5 -11.6,-1.9 c 0,0 15.4,21.2 43,21.2 l -7.7,6.4 c 0,0 58.3,15.1 83.4,-17.5 l -3.8,-8.2 -3.2,-5.1 c 0,0 -11.6,24.4 -37.9,24.4 -26.3,0 -61,-21.2 -54.6,-53.3 6.4,-32.1 28.9,-53.3 41.1,-45 12.2,8.3 8.3,-16.1 -16.7,-8.3 0,0 0,-8.3 3.2,-7.7 3.2,0.6 -17.3,-5.1 -25,18.6 l 1.3,-12.2 c 0,0 -27,9.6 -28.3,43.7 L 122.1,758 c 0.1,0 -18.5,37.3 20.7,56.5 z M 141.1,785 c 0,-2.4 0.2,-4.8 0.5,-7.3 0.4,-2.4 0.9,-4.8 1.6,-7.1 0.6,-2.3 1.5,-4.5 2.3,-6.6 1.7,-4.2 3.8,-7.9 5.7,-11 3.9,-6.1 7.3,-9.5 7.3,-9.5 0,0 -2.7,4 -6,10.3 -0.8,1.6 -1.6,3.3 -2.5,5.2 -0.8,1.8 -1.6,3.8 -2.4,5.9 -0.7,2.1 -1.4,4.2 -2,6.5 -0.6,2.2 -1.1,4.5 -1.4,6.8 -0.3,2.3 -0.6,4.6 -0.6,6.9 -0.1,2.3 0.1,4.5 0.3,6.7 0.1,1.1 0.4,2.1 0.5,3.2 0.2,1 0.5,2 0.7,3 0.6,1.9 1.2,3.7 1.9,5.3 0.3,0.8 0.7,1.6 1,2.3 0.4,0.7 0.7,1.4 1,2 0.8,1.2 1.3,2.3 1.9,3.2 1.2,1.7 1.8,2.7 1.8,2.7 0,0 -0.8,-0.9 -2.2,-2.4 -0.7,-0.8 -1.4,-1.8 -2.3,-3 -0.4,-0.6 -0.8,-1.3 -1.3,-2 -0.5,-0.7 -0.9,-1.4 -1.3,-2.3 -0.9,-1.6 -1.7,-3.4 -2.4,-5.4 -0.3,-1 -0.7,-2 -0.9,-3.1 -0.2,-1.1 -0.5,-2.2 -0.7,-3.3 -0.1,-1.1 -0.4,-2.3 -0.4,-3.5 0,-0.6 -0.1,-1.2 -0.1,-1.8 0,-0.5 0,-1.1 0,-1.7 z"
     fill="#4c7767"
     style="fill:#ffffff;fill-opacity:1" /><g
     id="g19701"
     style="fill:#ffffff;fill-opacity:1">
					<g
   id="g19695"
   style="fill:#ffffff;fill-opacity:1">
						<path
   id="path19671"
   d="m 294.4,661.3 c 0,-7.6 -2,-13.7 -6.2,-19.3 -4.1,2.7 -7.9,5.6 -11.5,8.7 6.2,4.2 10.3,6.9 17.7,10.6 z"
   fill="#4c7767"
   style="fill:#ffffff;fill-opacity:1" />
						<path
   id="path19673"
   d="m 229.2,651.9 c -6.5,-6 -11.7,-11.5 -15.3,-15.6 -3.2,4 -7.1,16.5 -7.9,25.3 3.5,3.7 4.3,4.3 9.4,8.9 3.9,-5.9 8.5,-12.2 13.8,-18.6 z"
   fill="#4c7767"
   style="fill:#ffffff;fill-opacity:1" />
						<path
   id="path19675"
   d="m 281.3,686.9 c -3.8,4.9 -7.1,9.6 -10,14.1 -0.8,1.2 -1.6,2.4 -2.3,3.6 3.6,1.4 7.2,2.6 11,3.7 0.4,-0.3 0.7,-0.6 1.1,-0.9 4.7,-4.1 9.1,-9.3 11.9,-16 0,0 0,0 0,-0.1 -4,-1.2 -7.9,-2.7 -11.7,-4.4 z"
   fill="#4c7767"
   style="fill:#ffffff;fill-opacity:1" />
						<path
   id="path19677"
   d="m 275,711.9 c -2.9,-0.9 -5.8,-2 -8.5,-3.1 -1.8,3.1 -3.5,6.1 -5,8.9 4.7,-1.2 9.3,-3.1 13.5,-5.8 z"
   fill="#4c7767"
   style="fill:#ffffff;fill-opacity:1" />
						<path
   id="path19679"
   d="m 201.2,663.6 c -1.3,7.7 0.8,13.4 4.8,22.5 2.4,-4.5 3.5,-6.4 6.7,-11.5 -4.3,-3.9 -8.2,-7.6 -11.5,-11 z"
   fill="#4c7767"
   style="fill:#ffffff;fill-opacity:1" />
						<path
   id="path19681"
   d="m 225,712.8 c 2.7,-5.8 6.3,-12.7 10.8,-20.2 -5,-3.3 -9.6,-6.7 -13.6,-10 -2,-1.6 -3.8,-3.1 -5.7,-4.7 -3.6,5.9 -6.7,11.5 -9.3,16.5 1.9,3.2 4.3,6.5 7.2,9.8 3.2,3.6 6.8,6.4 10.6,8.6 z"
   fill="#4c7767"
   style="fill:#ffffff;fill-opacity:1" />
						<path
   id="path19683"
   d="m 284.5,683 c 3.3,1.4 5,2.1 8.5,3.3 2.2,-6.5 4.9,-12 4.8,-17.5 -4.9,4.6 -9.3,9.4 -13.3,14.2 z"
   fill="#4c7767"
   style="fill:#ffffff;fill-opacity:1" />
						<path
   id="path19685"
   d="m 261.9,707 c -8,-3.5 -15.4,-7.5 -22.1,-11.8 -4.4,7.3 -7.9,14.2 -10.5,19.8 0.5,0.2 1,0.4 1.4,0.6 8,3.3 16.5,4.4 24.6,3.3 2,-3.7 4.2,-7.7 6.6,-11.9 z"
   fill="#4c7767"
   style="fill:#ffffff;fill-opacity:1" />
						<path
   id="path19687"
   d="m 238.3,688.4 c 0.5,-0.8 1.1,-1.7 1.6,-2.5 3.3,-5 7.1,-10.5 11.5,-15.9 -3.5,-2.5 -6.8,-5 -9.8,-7.4 -3.1,-2.5 -6,-4.9 -8.7,-7.3 -5.4,6.4 -9.9,12.7 -13.8,18.6 2,1.7 4,3.4 6.1,5.1 3.9,2.9 8.3,6.2 13.1,9.4 z"
   fill="#4c7767"
   style="fill:#ffffff;fill-opacity:1" />
						<path
   id="path19689"
   d="m 293.4,666.2 c -7.5,-3.8 -14.3,-8 -20.5,-12.3 -5.3,4.8 -10.1,9.9 -14.4,14.9 6.4,4.3 13.6,8.4 21.4,12.1 4.1,-4.9 8.6,-9.9 13.5,-14.7 z"
   fill="#4c7767"
   style="fill:#ffffff;fill-opacity:1" />
						<path
   id="path19691"
   d="m 261.8,645.6 c -3.8,-3 -7.3,-6.1 -10.6,-9 -5.6,4.7 -10.6,9.8 -15.2,14.9 2.7,2.4 5.6,4.9 8.7,7.3 3,2.4 6.3,4.9 9.8,7.3 4.3,-5.1 9.1,-10.2 14.4,-15.1 -2.5,-1.8 -4.9,-3.6 -7.1,-5.4 z"
   fill="#4c7767"
   style="fill:#ffffff;fill-opacity:1" />
						<path
   id="path19693"
   d="m 267.2,698.4 c 2.8,-4.3 6,-8.9 9.6,-13.5 -7.8,-3.7 -14.9,-7.9 -21.4,-12.2 -4.4,5.5 -8.2,10.8 -11.4,15.8 -0.6,0.9 -1.1,1.7 -1.6,2.5 6.7,4.2 14.1,8.3 22.1,11.7 0.8,-1.4 1.8,-2.9 2.7,-4.3 z"
   fill="#4c7767"
   style="fill:#ffffff;fill-opacity:1" />
					</g>
					<path
   id="path19697"
   d="m 235,620 c -2.5,1.5 -13.8,17.2 -13.8,17.2 3.5,4 5,5.3 11.2,11.1 4.6,-5.1 9.6,-10.2 15.2,-14.9 C 244.3,630.1 235,620 235,620 Z"
   fill="#4c7767"
   style="fill:#ffffff;fill-opacity:1" />
					<path
   id="path19699"
   d="m 267.8,621.6 -12.8,12 c 3,2.7 6.3,5.6 9.9,8.4 2.4,1.9 5,3.9 7.7,5.9 3.9,-3.4 5.2,-4.6 9.7,-7.6 -4.2,-5.4 -14.5,-18.7 -14.5,-18.7 z"
   fill="#4c7767"
   style="fill:#ffffff;fill-opacity:1" />
				</g><path
     id="path19703"
     d="m 246.6,554 c -1.1,0 -2,0.4 -2.7,1.3 -2.4,2.7 -2.7,9.3 -2.2,14.5 0,0 0,0.1 0,0.1 v 0 c 1.4,17.9 2.5,35 3.5,52.3 1,1.1 2,2.1 3,3.2 1,-18.9 2.1,-37.1 3.5,-55.5 v 0 c 0,0 0,-0.1 0,-0.1 0.5,-5.3 0.1,-11.8 -2.3,-14.5 -0.8,-0.9 -1.7,-1.3 -2.8,-1.3 z"
     fill="#d36d95"
     style="fill:#db88a5;fill-opacity:1" /><path
     id="path19705"
     d="m 230.4,554.7 c -0.2,0 -0.4,0 -0.6,0 -1,0.2 -1.8,0.7 -2.4,1.6 -1.6,2.4 -1.4,7.7 0.5,14.3 0,0.1 0,0.2 0.1,0.3 v 0 c 3.9,14.6 7.3,29 10.4,43.9 1.2,1.3 2.7,2.9 4.4,4.7 -1.4,-16.6 -3,-33 -4.9,-49.9 v -0.3 0 c -0.4,-3.5 -2.3,-14.6 -7.5,-14.6 z"
     fill="#d36d95"
     style="fill:#db88a5;fill-opacity:1" /><path
     id="path19707"
     d="m 214.6,560.6 c -0.3,0 -0.7,0 -1,0.1 -1,0.3 -1.6,0.9 -2,1.7 -0.6,1.4 -1.1,5.1 2.9,13.5 0.1,0.2 0.1,0.3 0.2,0.4 v 0 c 6.1,13 11.4,26.1 16.2,40.1 1.5,-1.7 2.6,-2.9 3.4,-3.6 -3,-13.1 -6.3,-25.8 -10.2,-38.7 l -0.1,-0.4 v 0 c -0.8,-2.5 -4.4,-13.1 -9.4,-13.1 z"
     fill="#d36d95"
     style="fill:#db88a5;fill-opacity:1" /><path
     id="path19709"
     d="m 200.6,567.1 c -0.5,0 -1,0.1 -1.4,0.3 -0.9,0.3 -1.4,0.9 -1.6,1.7 -0.5,1.7 0,5.2 5,12.5 0.2,0.3 0.3,0.5 0.4,0.6 8.4,12.4 15.9,25.7 22.9,40.4 1,-1.3 1.9,-2.4 2.7,-3.4 -5,-14.1 -10.5,-27.2 -16.8,-40.1 l -0.2,-0.4 v 0 c -1,-2.2 -6.1,-11.6 -11,-11.6 z"
     fill="#d36d95"
     style="fill:#db88a5;fill-opacity:1" /><path
     id="path19711"
     d="m 189.3,574.9 c -0.6,0 -1.1,0.1 -1.7,0.4 -0.7,0.4 -1.2,0.9 -1.3,1.6 -0.5,2.2 1.7,6.2 6.4,11.7 0.3,0.4 0.5,0.6 0.6,0.8 10,11.7 19,24.7 27.5,39.7 0.8,-1 1.6,-2.1 2.4,-3.2 -6.5,-14.6 -13.6,-27.7 -21.7,-40.1 l -0.2,-0.3 v 0 c -0.9,-1.9 -7,-10.6 -12,-10.6 z"
     fill="#d36d95"
     style="fill:#db88a5;fill-opacity:1" /><path
     id="path19713"
     d="m 301.6,588.5 c 4.7,-5.5 6.9,-9.4 6.4,-11.7 -0.1,-0.7 -0.6,-1.2 -1.3,-1.6 -0.5,-0.3 -1.1,-0.4 -1.7,-0.4 -4.9,0 -11.1,8.8 -12.1,10.5 v 0 l -0.2,0.3 c -7.2,11 -13.5,22.5 -19.5,35.2 l 2.8,3.6 c 7.7,-13.1 15.9,-24.7 24.9,-35.2 0.2,-0.1 0.4,-0.3 0.7,-0.7 z"
     fill="#d36d95"
     style="fill:#db88a5;fill-opacity:1" /><path
     id="path19715"
     d="m 291.9,581.6 c 5,-7.4 5.5,-10.9 5,-12.5 -0.2,-0.8 -0.8,-1.4 -1.6,-1.7 -0.5,-0.2 -0.9,-0.3 -1.4,-0.3 -4.9,0 -10,9.4 -10.9,11.6 v 0 l -0.2,0.4 c -5.5,11.2 -10.3,22.6 -14.8,34.7 l 3.1,4 c 6.3,-12.8 13,-24.5 20.6,-35.6 -0.1,-0.1 0,-0.3 0.2,-0.6 z"
     fill="#d36d95"
     style="fill:#db88a5;fill-opacity:1" /><path
     id="path19717"
     d="m 279.8,576.4 c 0,-0.1 0.1,-0.2 0.2,-0.4 4,-8.5 3.5,-12.1 2.9,-13.5 -0.4,-0.9 -1.1,-1.4 -2,-1.7 -0.3,-0.1 -0.7,-0.1 -1,-0.1 -5,0 -8.7,10.7 -9.3,13.2 v 0 l -0.1,0.4 c -4.7,16 -8.8,31.8 -12.3,48.2 l 5.1,-4.8 c 4.9,-14.5 10.3,-28 16.5,-41.3 z"
     fill="#d36d95"
     style="fill:#db88a5;fill-opacity:1" /><path
     id="path19719"
     d="m 251.2,625.5 c 0.6,0.5 1.2,1.1 1.8,1.6 l 0.8,-0.8 c 3.5,-19 7.7,-37.1 12.6,-55.5 v 0 c 0,-0.1 0,-0.2 0.1,-0.3 1.8,-6.7 2,-11.9 0.5,-14.3 -0.6,-0.9 -1.4,-1.4 -2.4,-1.6 -0.2,0 -0.4,0 -0.5,0 -5.2,0 -7.1,11.1 -7.4,14.7 v 0 0.3 c -2.3,19 -4,37.2 -5.5,55.9 z"
     fill="#d36d95"
     style="fill:#db88a5;fill-opacity:1" /><path
     id="path19725"
     d="m 244.4,733.1 v 86 h 5.6 v -86 c 0.1,-2.1 0.8,-6.7 5.2,-8.3 h -5.2 -2.8 -2.8 -5.2 c 4.4,1.6 5.1,6.2 5.2,8.3 z"
     fill="#4c7767"
     style="fill:#ffffff;fill-opacity:1" /></g>
		</g>
<text
   id="text23955"
   y="154"
   x="217.57002"
   style="font-style:normal;font-weight:normal;font-size:146.667px;line-height:1.25;font-family:sans-serif;fill:#000000;fill-opacity:1;stroke:none"
   xml:space="preserve"><tspan
     style="font-style:normal;font-variant:normal;font-weight:normal;font-stretch:normal;font-size:146.667px;font-family:Ubuntu;-inkscape-font-specification:Ubuntu;fill:#ffffff"
     y="154"
     x="217.57002"
     id="tspan23953"
     sodipodi:role="line">Wild Flower Gallery</tspan></text></svg>
